<mxfile host="app.diagrams.net" modified="2024-02-27T17:17:03.255Z" agent="Mozilla/5.0 (Windows NT 10.0; Win64; x64) AppleWebKit/537.36 (KHTML, like Gecko) Chrome/122.0.0.0 Safari/537.36" etag="-AnEIKc3L1scMbwfRfFD" version="23.1.1" type="device">
  <diagram name="PÃ¡gina-1" id="QkIoTdbmVTzb9oMZIWxe">
    <mxGraphModel dx="1500" dy="807" grid="1" gridSize="10" guides="1" tooltips="1" connect="1" arrows="1" fold="1" page="1" pageScale="1" pageWidth="827" pageHeight="1169" math="0" shadow="0">
      <root>
        <mxCell id="0" />
        <mxCell id="1" parent="0" />
        <mxCell id="IpVQZGAEiFU9UXTctJnG-103" style="edgeStyle=orthogonalEdgeStyle;rounded=0;orthogonalLoop=1;jettySize=auto;html=1;exitX=0.75;exitY=1;exitDx=0;exitDy=0;entryX=0.5;entryY=0;entryDx=0;entryDy=0;fillColor=#e1d5e7;strokeColor=#9673a6;" edge="1" parent="1" source="IpVQZGAEiFU9UXTctJnG-67" target="IpVQZGAEiFU9UXTctJnG-102">
          <mxGeometry relative="1" as="geometry" />
        </mxCell>
        <mxCell id="IpVQZGAEiFU9UXTctJnG-120" style="edgeStyle=orthogonalEdgeStyle;rounded=0;orthogonalLoop=1;jettySize=auto;html=1;exitX=0;exitY=1;exitDx=0;exitDy=0;fillColor=#d5e8d4;strokeColor=#82b366;" edge="1" parent="1" source="IpVQZGAEiFU9UXTctJnG-67" target="IpVQZGAEiFU9UXTctJnG-119">
          <mxGeometry relative="1" as="geometry" />
        </mxCell>
        <mxCell id="IpVQZGAEiFU9UXTctJnG-125" style="edgeStyle=orthogonalEdgeStyle;rounded=0;orthogonalLoop=1;jettySize=auto;html=1;exitX=0.25;exitY=1;exitDx=0;exitDy=0;fillColor=#d5e8d4;strokeColor=#82b366;" edge="1" parent="1" source="IpVQZGAEiFU9UXTctJnG-67" target="IpVQZGAEiFU9UXTctJnG-123">
          <mxGeometry relative="1" as="geometry" />
        </mxCell>
        <mxCell id="IpVQZGAEiFU9UXTctJnG-67" value="" style="image;html=1;image=img/lib/clip_art/networking/Switch_128x128.png" vertex="1" parent="1">
          <mxGeometry x="350" y="230" width="134" height="140" as="geometry" />
        </mxCell>
        <mxCell id="IpVQZGAEiFU9UXTctJnG-71" style="edgeStyle=orthogonalEdgeStyle;rounded=0;orthogonalLoop=1;jettySize=auto;html=1;exitX=1;exitY=0.7;exitDx=0;exitDy=0;exitPerimeter=0;" edge="1" parent="1" source="IpVQZGAEiFU9UXTctJnG-68" target="IpVQZGAEiFU9UXTctJnG-70">
          <mxGeometry relative="1" as="geometry" />
        </mxCell>
        <mxCell id="IpVQZGAEiFU9UXTctJnG-68" value="" style="outlineConnect=0;dashed=0;verticalLabelPosition=bottom;verticalAlign=top;align=center;html=1;shape=mxgraph.aws3.internet_3;fillColor=#D2D3D3;gradientColor=none;" vertex="1" parent="1">
          <mxGeometry x="121" y="40" width="130" height="90" as="geometry" />
        </mxCell>
        <mxCell id="IpVQZGAEiFU9UXTctJnG-77" style="edgeStyle=orthogonalEdgeStyle;rounded=0;orthogonalLoop=1;jettySize=auto;html=1;exitX=0.5;exitY=1;exitDx=0;exitDy=0;" edge="1" parent="1" source="IpVQZGAEiFU9UXTctJnG-69" target="IpVQZGAEiFU9UXTctJnG-67">
          <mxGeometry relative="1" as="geometry" />
        </mxCell>
        <mxCell id="IpVQZGAEiFU9UXTctJnG-160" style="edgeStyle=orthogonalEdgeStyle;rounded=0;orthogonalLoop=1;jettySize=auto;html=1;entryX=0.5;entryY=0;entryDx=0;entryDy=0;" edge="1" parent="1" source="IpVQZGAEiFU9UXTctJnG-69" target="IpVQZGAEiFU9UXTctJnG-76">
          <mxGeometry relative="1" as="geometry">
            <Array as="points">
              <mxPoint x="531" y="180" />
              <mxPoint x="121" y="180" />
            </Array>
          </mxGeometry>
        </mxCell>
        <mxCell id="IpVQZGAEiFU9UXTctJnG-69" value="" style="image;html=1;image=img/lib/clip_art/computers/Server_Rack_128x128.png" vertex="1" parent="1">
          <mxGeometry x="531" y="50" width="170" height="100" as="geometry" />
        </mxCell>
        <mxCell id="IpVQZGAEiFU9UXTctJnG-70" value="" style="sketch=0;pointerEvents=1;shadow=0;dashed=0;html=1;strokeColor=none;fillColor=#505050;labelPosition=center;verticalLabelPosition=bottom;verticalAlign=top;outlineConnect=0;align=center;shape=mxgraph.office.devices.modem;" vertex="1" parent="1">
          <mxGeometry x="362" y="58" width="110" height="72" as="geometry" />
        </mxCell>
        <mxCell id="IpVQZGAEiFU9UXTctJnG-74" value="" style="image;html=1;image=img/lib/clip_art/computers/Printer_Commercial_128x128.png" vertex="1" parent="1">
          <mxGeometry x="131" y="310" width="102.5" height="100" as="geometry" />
        </mxCell>
        <mxCell id="IpVQZGAEiFU9UXTctJnG-75" value="" style="image;html=1;image=img/lib/clip_art/computers/Printer_Commercial_128x128.png" vertex="1" parent="1">
          <mxGeometry x="191" y="210" width="100" height="100" as="geometry" />
        </mxCell>
        <mxCell id="IpVQZGAEiFU9UXTctJnG-76" value="" style="image;html=1;image=img/lib/clip_art/computers/Printer_Commercial_128x128.png" vertex="1" parent="1">
          <mxGeometry x="71" y="210" width="100" height="100" as="geometry" />
        </mxCell>
        <mxCell id="IpVQZGAEiFU9UXTctJnG-83" value="" style="image;points=[];aspect=fixed;html=1;align=center;shadow=0;dashed=0;image=img/lib/allied_telesis/computer_and_terminals/Personal_Computer_with_Server.svg;" vertex="1" parent="1">
          <mxGeometry x="571" y="300" width="62.400000000000006" height="62.400000000000006" as="geometry" />
        </mxCell>
        <mxCell id="IpVQZGAEiFU9UXTctJnG-84" value="" style="image;points=[];aspect=fixed;html=1;align=center;shadow=0;dashed=0;image=img/lib/allied_telesis/computer_and_terminals/Personal_Computer_with_Server.svg;" vertex="1" parent="1">
          <mxGeometry x="638.6" y="228.8" width="62.400000000000006" height="62.400000000000006" as="geometry" />
        </mxCell>
        <mxCell id="IpVQZGAEiFU9UXTctJnG-85" value="" style="image;points=[];aspect=fixed;html=1;align=center;shadow=0;dashed=0;image=img/lib/allied_telesis/computer_and_terminals/Personal_Computer_with_Server.svg;" vertex="1" parent="1">
          <mxGeometry x="521" y="220" width="62.400000000000006" height="62.400000000000006" as="geometry" />
        </mxCell>
        <mxCell id="IpVQZGAEiFU9UXTctJnG-87" value="" style="image;points=[];aspect=fixed;html=1;align=center;shadow=0;dashed=0;image=img/lib/allied_telesis/computer_and_terminals/Personal_Computer_with_Server.svg;" vertex="1" parent="1">
          <mxGeometry x="661" y="300" width="62.400000000000006" height="62.400000000000006" as="geometry" />
        </mxCell>
        <mxCell id="IpVQZGAEiFU9UXTctJnG-112" style="edgeStyle=orthogonalEdgeStyle;rounded=0;orthogonalLoop=1;jettySize=auto;html=1;exitX=0;exitY=0.75;exitDx=0;exitDy=0;entryX=0.75;entryY=1;entryDx=0;entryDy=0;fillColor=#e1d5e7;strokeColor=#9673a6;" edge="1" parent="1" source="IpVQZGAEiFU9UXTctJnG-102" target="IpVQZGAEiFU9UXTctJnG-111">
          <mxGeometry relative="1" as="geometry" />
        </mxCell>
        <mxCell id="IpVQZGAEiFU9UXTctJnG-113" style="edgeStyle=orthogonalEdgeStyle;rounded=0;orthogonalLoop=1;jettySize=auto;html=1;exitX=0.5;exitY=1;exitDx=0;exitDy=0;entryX=0.5;entryY=1;entryDx=0;entryDy=0;fillColor=#e1d5e7;strokeColor=#9673a6;" edge="1" parent="1" source="IpVQZGAEiFU9UXTctJnG-102" target="IpVQZGAEiFU9UXTctJnG-110">
          <mxGeometry relative="1" as="geometry" />
        </mxCell>
        <mxCell id="IpVQZGAEiFU9UXTctJnG-102" value="" style="image;html=1;image=img/lib/clip_art/networking/Print_Server_128x128.png" vertex="1" parent="1">
          <mxGeometry x="651" y="450" width="90" height="100" as="geometry" />
        </mxCell>
        <mxCell id="IpVQZGAEiFU9UXTctJnG-106" value="" style="image;points=[];aspect=fixed;html=1;align=center;shadow=0;dashed=0;image=img/lib/allied_telesis/computer_and_terminals/Personal_Computer_with_Server.svg;" vertex="1" parent="1">
          <mxGeometry x="484" y="630" width="62.400000000000006" height="62.400000000000006" as="geometry" />
        </mxCell>
        <mxCell id="IpVQZGAEiFU9UXTctJnG-107" value="" style="image;points=[];aspect=fixed;html=1;align=center;shadow=0;dashed=0;image=img/lib/allied_telesis/computer_and_terminals/Personal_Computer_with_Server.svg;" vertex="1" parent="1">
          <mxGeometry x="571" y="630" width="62.400000000000006" height="62.400000000000006" as="geometry" />
        </mxCell>
        <mxCell id="IpVQZGAEiFU9UXTctJnG-108" value="" style="image;points=[];aspect=fixed;html=1;align=center;shadow=0;dashed=0;image=img/lib/allied_telesis/computer_and_terminals/Personal_Computer_with_Server.svg;" vertex="1" parent="1">
          <mxGeometry x="651" y="630" width="62.400000000000006" height="62.400000000000006" as="geometry" />
        </mxCell>
        <mxCell id="IpVQZGAEiFU9UXTctJnG-109" value="" style="image;points=[];aspect=fixed;html=1;align=center;shadow=0;dashed=0;image=img/lib/allied_telesis/computer_and_terminals/Personal_Computer_with_Server.svg;" vertex="1" parent="1">
          <mxGeometry x="723.4" y="630" width="62.400000000000006" height="62.400000000000006" as="geometry" />
        </mxCell>
        <mxCell id="IpVQZGAEiFU9UXTctJnG-110" value="" style="image;html=1;image=img/lib/clip_art/computers/Printer_Commercial_128x128.png" vertex="1" parent="1">
          <mxGeometry x="451" y="460" width="80" height="80" as="geometry" />
        </mxCell>
        <mxCell id="IpVQZGAEiFU9UXTctJnG-111" value="" style="image;html=1;image=img/lib/clip_art/computers/Printer_Commercial_128x128.png" vertex="1" parent="1">
          <mxGeometry x="531" y="460" width="80" height="80" as="geometry" />
        </mxCell>
        <mxCell id="IpVQZGAEiFU9UXTctJnG-114" style="edgeStyle=orthogonalEdgeStyle;rounded=0;orthogonalLoop=1;jettySize=auto;html=1;exitX=0.75;exitY=1;exitDx=0;exitDy=0;entryX=0.424;entryY=0.991;entryDx=0;entryDy=0;entryPerimeter=0;fillColor=#e1d5e7;strokeColor=#9673a6;" edge="1" parent="1" source="IpVQZGAEiFU9UXTctJnG-67" target="IpVQZGAEiFU9UXTctJnG-106">
          <mxGeometry relative="1" as="geometry">
            <Array as="points">
              <mxPoint x="450" y="710" />
              <mxPoint x="510" y="710" />
            </Array>
          </mxGeometry>
        </mxCell>
        <mxCell id="IpVQZGAEiFU9UXTctJnG-115" style="edgeStyle=orthogonalEdgeStyle;rounded=0;orthogonalLoop=1;jettySize=auto;html=1;exitX=0.75;exitY=1;exitDx=0;exitDy=0;entryX=0.495;entryY=0.991;entryDx=0;entryDy=0;entryPerimeter=0;fillColor=#e1d5e7;strokeColor=#9673a6;" edge="1" parent="1" source="IpVQZGAEiFU9UXTctJnG-67" target="IpVQZGAEiFU9UXTctJnG-107">
          <mxGeometry relative="1" as="geometry" />
        </mxCell>
        <mxCell id="IpVQZGAEiFU9UXTctJnG-117" style="edgeStyle=orthogonalEdgeStyle;rounded=0;orthogonalLoop=1;jettySize=auto;html=1;exitX=0.75;exitY=1;exitDx=0;exitDy=0;entryX=0.641;entryY=1.01;entryDx=0;entryDy=0;entryPerimeter=0;fillColor=#e1d5e7;strokeColor=#9673a6;" edge="1" parent="1" source="IpVQZGAEiFU9UXTctJnG-67" target="IpVQZGAEiFU9UXTctJnG-108">
          <mxGeometry relative="1" as="geometry" />
        </mxCell>
        <mxCell id="IpVQZGAEiFU9UXTctJnG-118" style="edgeStyle=orthogonalEdgeStyle;rounded=0;orthogonalLoop=1;jettySize=auto;html=1;exitX=0.75;exitY=1;exitDx=0;exitDy=0;entryX=0.433;entryY=1.01;entryDx=0;entryDy=0;entryPerimeter=0;fillColor=#e1d5e7;strokeColor=#9673a6;" edge="1" parent="1" source="IpVQZGAEiFU9UXTctJnG-67" target="IpVQZGAEiFU9UXTctJnG-109">
          <mxGeometry relative="1" as="geometry" />
        </mxCell>
        <mxCell id="IpVQZGAEiFU9UXTctJnG-119" value="" style="verticalLabelPosition=bottom;sketch=0;aspect=fixed;html=1;verticalAlign=top;strokeColor=none;align=center;outlineConnect=0;shape=mxgraph.citrix.file_server;" vertex="1" parent="1">
          <mxGeometry x="41" y="510" width="71" height="97" as="geometry" />
        </mxCell>
        <mxCell id="IpVQZGAEiFU9UXTctJnG-121" value="" style="image;points=[];aspect=fixed;html=1;align=center;shadow=0;dashed=0;image=img/lib/allied_telesis/computer_and_terminals/Personal_Computer_with_Server.svg;" vertex="1" parent="1">
          <mxGeometry x="248.55" y="520" width="62.400000000000006" height="62.400000000000006" as="geometry" />
        </mxCell>
        <mxCell id="IpVQZGAEiFU9UXTctJnG-122" value="" style="image;points=[];aspect=fixed;html=1;align=center;shadow=0;dashed=0;image=img/lib/allied_telesis/computer_and_terminals/Personal_Computer_with_Server.svg;" vertex="1" parent="1">
          <mxGeometry x="171" y="597" width="62.400000000000006" height="62.400000000000006" as="geometry" />
        </mxCell>
        <mxCell id="IpVQZGAEiFU9UXTctJnG-123" value="" style="image;points=[];aspect=fixed;html=1;align=center;shadow=0;dashed=0;image=img/lib/allied_telesis/computer_and_terminals/Personal_Computer_with_Server.svg;" vertex="1" parent="1">
          <mxGeometry x="171" y="520" width="62.400000000000006" height="62.400000000000006" as="geometry" />
        </mxCell>
        <mxCell id="IpVQZGAEiFU9UXTctJnG-124" value="" style="image;points=[];aspect=fixed;html=1;align=center;shadow=0;dashed=0;image=img/lib/allied_telesis/computer_and_terminals/Personal_Computer_with_Server.svg;" vertex="1" parent="1">
          <mxGeometry x="248.55" y="597" width="62.400000000000006" height="62.400000000000006" as="geometry" />
        </mxCell>
        <mxCell id="IpVQZGAEiFU9UXTctJnG-126" style="edgeStyle=orthogonalEdgeStyle;rounded=0;orthogonalLoop=1;jettySize=auto;html=1;exitX=0.25;exitY=1;exitDx=0;exitDy=0;entryX=0.579;entryY=-0.025;entryDx=0;entryDy=0;entryPerimeter=0;fillColor=#d5e8d4;strokeColor=#82b366;" edge="1" parent="1" source="IpVQZGAEiFU9UXTctJnG-67" target="IpVQZGAEiFU9UXTctJnG-121">
          <mxGeometry relative="1" as="geometry" />
        </mxCell>
        <mxCell id="IpVQZGAEiFU9UXTctJnG-128" style="edgeStyle=orthogonalEdgeStyle;rounded=0;orthogonalLoop=1;jettySize=auto;html=1;exitX=0.25;exitY=1;exitDx=0;exitDy=0;entryX=0.414;entryY=1.012;entryDx=0;entryDy=0;entryPerimeter=0;fillColor=#d5e8d4;strokeColor=#82b366;" edge="1" parent="1" source="IpVQZGAEiFU9UXTctJnG-67" target="IpVQZGAEiFU9UXTctJnG-124">
          <mxGeometry relative="1" as="geometry" />
        </mxCell>
        <mxCell id="IpVQZGAEiFU9UXTctJnG-129" style="edgeStyle=orthogonalEdgeStyle;rounded=0;orthogonalLoop=1;jettySize=auto;html=1;exitX=0.25;exitY=1;exitDx=0;exitDy=0;entryX=0.668;entryY=1.012;entryDx=0;entryDy=0;entryPerimeter=0;fillColor=#d5e8d4;strokeColor=#82b366;" edge="1" parent="1" source="IpVQZGAEiFU9UXTctJnG-67" target="IpVQZGAEiFU9UXTctJnG-122">
          <mxGeometry relative="1" as="geometry" />
        </mxCell>
        <mxCell id="IpVQZGAEiFU9UXTctJnG-133" value="" style="image;points=[];aspect=fixed;html=1;align=center;shadow=0;dashed=0;image=img/lib/allied_telesis/computer_and_terminals/Laptop.svg;" vertex="1" parent="1">
          <mxGeometry x="20" y="710" width="69.01" height="70" as="geometry" />
        </mxCell>
        <mxCell id="IpVQZGAEiFU9UXTctJnG-134" value="" style="image;points=[];aspect=fixed;html=1;align=center;shadow=0;dashed=0;image=img/lib/allied_telesis/computer_and_terminals/Laptop.svg;" vertex="1" parent="1">
          <mxGeometry x="95.47999999999999" y="710" width="69.01" height="70" as="geometry" />
        </mxCell>
        <mxCell id="IpVQZGAEiFU9UXTctJnG-135" value="" style="image;points=[];aspect=fixed;html=1;align=center;shadow=0;dashed=0;image=img/lib/allied_telesis/computer_and_terminals/Laptop.svg;" vertex="1" parent="1">
          <mxGeometry x="164.49" y="710" width="69.01" height="70" as="geometry" />
        </mxCell>
        <mxCell id="IpVQZGAEiFU9UXTctJnG-137" style="edgeStyle=orthogonalEdgeStyle;rounded=0;orthogonalLoop=1;jettySize=auto;html=1;exitX=0.5;exitY=1;exitDx=0;exitDy=0;entryX=1.003;entryY=0.639;entryDx=0;entryDy=0;entryPerimeter=0;fillColor=#d5e8d4;strokeColor=#82b366;" edge="1" parent="1" source="IpVQZGAEiFU9UXTctJnG-67" target="IpVQZGAEiFU9UXTctJnG-135">
          <mxGeometry relative="1" as="geometry" />
        </mxCell>
        <mxCell id="IpVQZGAEiFU9UXTctJnG-138" style="edgeStyle=orthogonalEdgeStyle;rounded=0;orthogonalLoop=1;jettySize=auto;html=1;exitX=0.5;exitY=1;exitDx=0;exitDy=0;entryX=0.48;entryY=1.014;entryDx=0;entryDy=0;entryPerimeter=0;fillColor=#d5e8d4;strokeColor=#82b366;" edge="1" parent="1" source="IpVQZGAEiFU9UXTctJnG-67" target="IpVQZGAEiFU9UXTctJnG-134">
          <mxGeometry relative="1" as="geometry" />
        </mxCell>
        <mxCell id="IpVQZGAEiFU9UXTctJnG-140" style="edgeStyle=orthogonalEdgeStyle;rounded=0;orthogonalLoop=1;jettySize=auto;html=1;exitX=0.5;exitY=1;exitDx=0;exitDy=0;entryX=0.745;entryY=0.998;entryDx=0;entryDy=0;entryPerimeter=0;fillColor=#d5e8d4;strokeColor=#82b366;" edge="1" parent="1" source="IpVQZGAEiFU9UXTctJnG-67" target="IpVQZGAEiFU9UXTctJnG-133">
          <mxGeometry relative="1" as="geometry" />
        </mxCell>
        <mxCell id="IpVQZGAEiFU9UXTctJnG-141" value="" style="image;html=1;image=img/lib/clip_art/computers/Printer_128x128.png" vertex="1" parent="1">
          <mxGeometry x="89.00999999999999" y="840" width="80" height="80" as="geometry" />
        </mxCell>
        <mxCell id="IpVQZGAEiFU9UXTctJnG-148" style="edgeStyle=orthogonalEdgeStyle;rounded=0;orthogonalLoop=1;jettySize=auto;html=1;exitX=1;exitY=0;exitDx=0;exitDy=0;entryX=0.654;entryY=0.003;entryDx=0;entryDy=0;entryPerimeter=0;" edge="1" parent="1" source="IpVQZGAEiFU9UXTctJnG-67" target="IpVQZGAEiFU9UXTctJnG-84">
          <mxGeometry relative="1" as="geometry" />
        </mxCell>
        <mxCell id="IpVQZGAEiFU9UXTctJnG-150" style="edgeStyle=orthogonalEdgeStyle;rounded=0;orthogonalLoop=1;jettySize=auto;html=1;exitX=1;exitY=0.25;exitDx=0;exitDy=0;entryX=0.121;entryY=0.987;entryDx=0;entryDy=0;entryPerimeter=0;" edge="1" parent="1" source="IpVQZGAEiFU9UXTctJnG-67" target="IpVQZGAEiFU9UXTctJnG-85">
          <mxGeometry relative="1" as="geometry" />
        </mxCell>
        <mxCell id="IpVQZGAEiFU9UXTctJnG-151" style="edgeStyle=orthogonalEdgeStyle;rounded=0;orthogonalLoop=1;jettySize=auto;html=1;exitX=1;exitY=0.75;exitDx=0;exitDy=0;entryX=-0.094;entryY=0.859;entryDx=0;entryDy=0;entryPerimeter=0;" edge="1" parent="1" source="IpVQZGAEiFU9UXTctJnG-67" target="IpVQZGAEiFU9UXTctJnG-83">
          <mxGeometry relative="1" as="geometry" />
        </mxCell>
        <mxCell id="IpVQZGAEiFU9UXTctJnG-153" style="edgeStyle=orthogonalEdgeStyle;rounded=0;orthogonalLoop=1;jettySize=auto;html=1;exitX=1;exitY=1;exitDx=0;exitDy=0;entryX=0.552;entryY=1.005;entryDx=0;entryDy=0;entryPerimeter=0;" edge="1" parent="1" source="IpVQZGAEiFU9UXTctJnG-67" target="IpVQZGAEiFU9UXTctJnG-87">
          <mxGeometry relative="1" as="geometry" />
        </mxCell>
        <mxCell id="IpVQZGAEiFU9UXTctJnG-155" style="edgeStyle=orthogonalEdgeStyle;rounded=0;orthogonalLoop=1;jettySize=auto;html=1;entryX=0.288;entryY=0.44;entryDx=0;entryDy=0;entryPerimeter=0;" edge="1" parent="1" source="IpVQZGAEiFU9UXTctJnG-70" target="IpVQZGAEiFU9UXTctJnG-69">
          <mxGeometry relative="1" as="geometry" />
        </mxCell>
        <mxCell id="IpVQZGAEiFU9UXTctJnG-156" style="edgeStyle=orthogonalEdgeStyle;rounded=0;orthogonalLoop=1;jettySize=auto;html=1;exitX=0.75;exitY=0;exitDx=0;exitDy=0;entryX=0.37;entryY=0.857;entryDx=0;entryDy=0;entryPerimeter=0;fillColor=#d5e8d4;strokeColor=#82b366;" edge="1" parent="1" source="IpVQZGAEiFU9UXTctJnG-141" target="IpVQZGAEiFU9UXTctJnG-135">
          <mxGeometry relative="1" as="geometry" />
        </mxCell>
        <mxCell id="IpVQZGAEiFU9UXTctJnG-158" style="edgeStyle=orthogonalEdgeStyle;rounded=0;orthogonalLoop=1;jettySize=auto;html=1;exitX=0.5;exitY=0;exitDx=0;exitDy=0;entryX=0.148;entryY=0.998;entryDx=0;entryDy=0;entryPerimeter=0;fillColor=#d5e8d4;strokeColor=#82b366;" edge="1" parent="1" source="IpVQZGAEiFU9UXTctJnG-141" target="IpVQZGAEiFU9UXTctJnG-134">
          <mxGeometry relative="1" as="geometry" />
        </mxCell>
        <mxCell id="IpVQZGAEiFU9UXTctJnG-159" style="edgeStyle=orthogonalEdgeStyle;rounded=0;orthogonalLoop=1;jettySize=auto;html=1;exitX=0.25;exitY=0;exitDx=0;exitDy=0;entryX=0.116;entryY=1.047;entryDx=0;entryDy=0;entryPerimeter=0;fillColor=#d5e8d4;strokeColor=#82b366;" edge="1" parent="1" source="IpVQZGAEiFU9UXTctJnG-141" target="IpVQZGAEiFU9UXTctJnG-133">
          <mxGeometry relative="1" as="geometry" />
        </mxCell>
        <mxCell id="IpVQZGAEiFU9UXTctJnG-164" value="" style="endArrow=none;html=1;rounded=0;endFill=0;" edge="1" parent="1">
          <mxGeometry width="50" height="50" relative="1" as="geometry">
            <mxPoint x="121" y="180" as="sourcePoint" />
            <mxPoint x="51" y="180" as="targetPoint" />
          </mxGeometry>
        </mxCell>
        <mxCell id="IpVQZGAEiFU9UXTctJnG-165" value="" style="endArrow=none;html=1;rounded=0;" edge="1" parent="1">
          <mxGeometry width="50" height="50" relative="1" as="geometry">
            <mxPoint x="50" y="390" as="sourcePoint" />
            <mxPoint x="50" y="178.8" as="targetPoint" />
          </mxGeometry>
        </mxCell>
        <mxCell id="IpVQZGAEiFU9UXTctJnG-167" value="" style="endArrow=classic;html=1;rounded=0;entryX=0;entryY=0.75;entryDx=0;entryDy=0;" edge="1" parent="1" target="IpVQZGAEiFU9UXTctJnG-74">
          <mxGeometry width="50" height="50" relative="1" as="geometry">
            <mxPoint x="50" y="385" as="sourcePoint" />
            <mxPoint x="110" y="350" as="targetPoint" />
          </mxGeometry>
        </mxCell>
        <mxCell id="IpVQZGAEiFU9UXTctJnG-168" value="" style="endArrow=none;html=1;rounded=0;" edge="1" parent="1" target="IpVQZGAEiFU9UXTctJnG-69">
          <mxGeometry width="50" height="50" relative="1" as="geometry">
            <mxPoint x="527.2" y="150" as="sourcePoint" />
            <mxPoint x="550" y="130" as="targetPoint" />
          </mxGeometry>
        </mxCell>
        <mxCell id="IpVQZGAEiFU9UXTctJnG-170" value="" style="endArrow=none;html=1;rounded=0;" edge="1" parent="1">
          <mxGeometry width="50" height="50" relative="1" as="geometry">
            <mxPoint x="527.2" y="150" as="sourcePoint" />
            <mxPoint x="560" y="120" as="targetPoint" />
          </mxGeometry>
        </mxCell>
      </root>
    </mxGraphModel>
  </diagram>
</mxfile>
